<?xml version="1.0" encoding="utf-8"?>
<!-- Svg Vector Icons : http://www.onlinewebfonts.com/icon -->
<!DOCTYPE svg PUBLIC "-//W3C//DTD SVG 1.1//EN" "http://www.w3.org/Graphics/SVG/1.1/DTD/svg11.dtd">
<svg version="1.1" xmlns="http://www.w3.org/2000/svg" xmlns:xlink="http://www.w3.org/1999/xlink" x="0px" y="0px" viewBox="0 0 256 256" enable-background="new 0 0 256 256" xml:space="preserve">
<metadata> Svg Vector Icons : http://www.onlinewebfonts.com/icon </metadata>
<g><g><g><path fill="#000000" d="M158.8,20.1c-3.5,1.3-6.2,4.4-7,8.2c-0.2,1-0.6,1.2-2.7,1.8c-4,0.9-8.8,3.6-12.3,6.7l-3.1,2.9l-4.1-2c-2.3-1.1-5.7-2.4-7.6-2.9c-2.7-0.6-3.5-1.1-3.6-1.8c-0.1-0.5-0.7-1.9-1.3-3.2c-2.1-4.2-5.7-5.8-13-5.8c-4.3,0-7.6,0.8-9.8,2.4c-1.6,1.2-3.4,4.2-3.8,6.4c-0.2,1-0.6,1.2-2.9,1.7c-6.1,1.2-11.8,4.2-16.6,8.9c-7.2,7-12.4,18.5-13.4,29.4c-0.3,3.2-0.3,3.4-1.7,4c-5.3,2.3-8.4,9.4-8,18.7l0.1,3.4l6,1.2l5.9,1.2l0.5,2c0.5,1.9,0.4,2.3-0.8,4.6c-3.6,6.4-1.1,18.9,4.7,24.1c2,1.8,2.4,2.4,3.5,6.1c1.6,5.3,4.5,11.2,7.3,15l2.3,2.9l-0.3,7.9c-0.3,7.1-0.5,8-1.4,9.7c-2.3,3.9-8.1,7.3-23.5,13.5c-16.3,6.6-23,10.5-29.7,17c-7.5,7.3-11,15.6-12.3,29.1l-0.3,3.1h94.8c90,0,94.7,0,94.5-0.8c-0.1-0.4-0.3-2.4-0.5-4.5c-0.5-6-1.7-10.5-4.7-17.6c-0.2-0.4,5.2-0.6,25.8-0.6c17.7,0,26.1-0.1,26.1-0.5c0-0.3-0.2-2.5-0.5-5c-1-8.8-3.2-14.8-7.8-20.5c-5.6-7-12.5-11.7-26.5-17.8c-13.5-6-19.3-9.6-20.8-13.2c-0.5-1-0.6-3.5-0.6-7.6v-6l1.6-2.2c0.8-1.2,2.2-3.4,2.9-4.9c1.3-2.8,3.8-9.5,3.8-10.5c0-0.3,0.6-1,1.3-1.6c3.1-2.3,5.1-6.3,6-12.2c0.5-3.4,0-7-1.3-9.5c-0.8-1.5-0.8-1.7,0.2-5.6c1-3.9,1.1-4,2.5-4.3c0.9-0.2,3.7-0.8,6.3-1.3l4.8-1.1l-0.3-4.6c-0.6-9.5-2.6-13.5-7.8-16.2c-0.6-0.3-1-1-1.1-2.3c-0.4-5.8-2.7-13.6-5.6-19c-4.9-9.1-11.2-14.5-19.8-17c-3.3-1-3.5-1.1-3.8-2.7c-0.7-3.4-3.9-6.7-7.3-7.6C169.9,19.3,160.9,19.4,158.8,20.1z M170.4,46.4c0.2,15.6,0.3,17.1,1.1,18.3c1.4,2,4.7,2.5,6.4,1c2-1.8,2.2-3.2,2.2-15.1c0-8.7,0.1-11.3,0.6-11.3c0.3,0,1.9,0.6,3.5,1.4c4.5,2.1,8.2,6.2,11.1,12.1c2.6,5.5,3.7,9.4,4.2,15.7c0.5,6,1.4,7.2,6.5,8.8c0.9,0.3,1.7,2.1,1.7,3.7c0,1-0.3,1.2-6.3,2.1c-9,1.4-14.1,1.8-26.4,2.4c-16.4,0.6-14.6,0.9-15.9-2c-1.2-2.8-3.9-5.6-6.1-6.4c-1.5-0.5-1.5-0.6-1.8-3.5c-0.8-8-4.7-18.9-8.8-24.5c-0.9-1.2-1.6-2.4-1.6-2.7c0-1.4,7.9-7,10-7c0.4,0,0.6,3.1,0.7,12.2l0.1,12.2l1.4,1.4c2,2,4.3,2,6.4,0l1.4-1.4l0.1-17.3l0.1-17.3l4.5,0.1l4.5,0.1L170.4,46.4z M109.2,51.4l0.2,17.4l1.2,1.2c2.5,2.5,6.7,1.3,7.7-2.2c0.3-1,0.5-6.1,0.5-12.9V43.8l1.6,0.3c3.1,0.5,7.6,3.1,10.8,6.3c6.5,6.3,10,14.9,10.9,26.6c0.4,4.5,1.3,6.4,3.8,7.4c4.3,1.8,4.7,2.3,5.3,5.5l0.3,1.5l-6.1,0.9c-13.2,2.1-21.1,2.6-41.1,2.6c-19.8,0-27.1-0.5-40.5-2.5c-3.3-0.5-6-0.9-6.1-0.9c-0.4,0-0.1-2,0.6-3.6c0.5-1.3,1.2-2,2.2-2.3c5.2-2,6-3.2,6.5-9.9c0.7-10.4,4.4-19.1,10.8-25.4c2.8-2.8,7.8-5.6,10.8-6l1.7-0.3l0.1,12.5l0.1,12.5l1.2,1.2c2.5,2.5,6.7,1.3,7.7-2.2c0.3-1.1,0.5-7.4,0.5-17.6c0-8.8,0.1-16,0.3-16.2c0.2-0.2,2.2-0.2,4.5-0.2l4.1,0.1L109.2,51.4z M195.2,94.2c-0.1,0.3-0.8,2.4-1.5,4.5l-1.3,3.9l2,2l2,1.9l-0.3,2.9c-0.4,4.1-1.5,5.9-3.8,6.8c-1.1,0.4-2,0.8-2.2,0.9c-0.1,0.1-0.6,2.3-1.2,4.8c-1.2,6-4.3,12.4-7,14.6l-1.9,1.5l0.3,9.9c0.3,9.9,0.3,10,1.7,12.5c3.4,6.4,8.6,10,24.7,17c8.7,3.9,11.4,5.3,15.8,8.2c4,2.6,8.1,6.8,10,10c1,1.7,3,6.7,3,7.6c0,0.2-11,0.4-24.4,0.4h-24.4l-2.5-2c-6.8-5.5-13.2-9-27.8-14.8c-14.8-6-20.2-9.2-23-13.4c-1.2-1.8-1.2-1.9-1.2-10v-8.2l1.7-2.2c2.3-3,5.8-10.6,7.2-15.3c1-3.4,1.3-4.1,3.5-6c1.5-1.4,2.8-3.2,3.7-5.2c1.4-3,2.8-8.8,2.8-11.6c0-2.2-1.2-6.7-2.3-8.2c-0.8-1.1-0.8-1.4-0.3-3.5l0.6-2.3l5.9-1.2L161,99l0.1-1.9l0.1-1.9l11.8-0.3c6.5-0.2,13.2-0.5,14.8-0.7C193,93.6,195.5,93.6,195.2,94.2z M83.4,103.9c12.9,0.9,37.7,0.6,52-0.8c3.8-0.4,3.8-0.4,2.6,3.2l-0.8,2.2l2.2,2.2l2.2,2.1l-0.3,3.6c-0.2,2.7-0.6,4.3-1.6,6.2c-1.2,2.5-1.4,2.6-3.5,3.1l-2.3,0.5l-0.8,4.4c-1.5,8-4.4,14.6-8.2,18.3l-2.5,2.5l0.2,11.1c0.2,10.8,0.3,11.2,1.4,13.8c1.4,3.1,5,7,8.8,9.8s8.7,5.1,20.4,9.9c16.4,6.7,21.1,9.4,27,15.4c4,4.1,6,7.4,7.6,12.4c0.6,1.7,1,3.2,1,3.3s-37.8,0.2-84.1,0.2c-71.9,0-84.1-0.1-84.1-0.6c0-1.3,2.3-7.4,3.8-9.9c0.8-1.4,2.9-4.1,4.7-5.8c5.6-5.6,11.6-9,27.2-15.3c18.4-7.5,24.5-11.5,28.3-18.8l1.6-2.9l0.2-11.6l0.2-11.5l-1.9-1.5c-3.5-2.8-7.6-11.2-8.8-18.1c-1-5.8-0.8-5.3-3-5.7c-2.4-0.3-3.5-1.5-4.6-4.7c-1.7-5.5-1.3-8.3,1.4-10.6c1.8-1.5,1.8-1.4,0.8-6l-0.3-1.6l3.2,0.3C75.2,103.2,79.7,103.6,83.4,103.9z"/></g></g></g>
</svg>