<?xml version="1.0" encoding="utf-8"?>
<!-- Svg Vector Icons : http://www.onlinewebfonts.com/icon -->
<!DOCTYPE svg PUBLIC "-//W3C//DTD SVG 1.1//EN" "http://www.w3.org/Graphics/SVG/1.1/DTD/svg11.dtd">
<svg version="1.1" xmlns="http://www.w3.org/2000/svg" xmlns:xlink="http://www.w3.org/1999/xlink" x="0px" y="0px" viewBox="0 0 256 256" enable-background="new 0 0 256 256" xml:space="preserve">
<metadata> Svg Vector Icons : http://www.onlinewebfonts.com/icon </metadata>
<g><g><g><path fill="#000000" d="M121.2,10.8c-4.1,1-9.6,3.8-11.4,5.6l-1.3,1.4v12.1c0,6.6,0.1,12.6,0.4,13.3l0.3,1.2l3.4-1.5c5.4-2.5,9-3.2,15.5-3.2c6.5,0,10.1,0.7,15.5,3.2l3.4,1.5l0.3-1.2c0.2-0.7,0.4-6.6,0.4-13.1c0-13.6,0.1-13.2-4.4-15.9C137,10.4,128,9.1,121.2,10.8z"/><path fill="#000000" d="M93.6,24.5C79.5,31.5,71,46.3,69.2,67.2l-0.3,3.6l-4.1,2c-2.3,1.2-4.4,2.5-4.8,3.1c-1.1,1.6-1,4.6,0.4,6c0.8,1,1,1.4,0.6,2c-1.8,3.2-2.4,20.6-1,27.7c0.9,4.4,3.2,9.5,5.5,12.1c1.8,1.9,5.6,4.1,7.2,4.1c0.4,0,0.8,0.4,0.8,0.8c0,1.5,4.6,12.3,7.2,16.8c8.9,15.7,21.5,26.3,36,30.1c7,1.8,15.5,1.8,22.5,0c17.6-4.6,32.5-19.4,40.8-40.4c1.2-3.2,2.3-6.2,2.3-6.6c0-0.4,0.4-0.7,0.8-0.7c1.6,0,5.4-2.2,7.2-4.1c1-1.1,2.4-3.5,3.3-5.3c2.4-5,3-9,3-19.4c0-8.9-0.4-12.7-1.7-15.2c-0.4-0.7-0.5-1.2-0.2-1.2c0.7,0,1.9-2.6,1.9-4.2c0-2.4-1.1-3.4-5.5-5.7l-4.1-2l-0.3-3.4c-1.9-21.4-10.2-36-24.4-43c-2.3-1.2-4.3-2.1-4.5-2.1c-0.1,0-0.4,5.1-0.5,11.4c-0.2,9.9-0.3,11.8-1.1,14l-0.9,2.6l1.5,1.8c4.2,4.8,7.4,10.6,9,16.2c0.9,3,1.1,4.7,1.1,10.5c0,6-0.1,7.4-1.1,10.4c-1.4,4.4-3.8,9.5-6.1,12.4c-1,1.3-1.7,2.5-1.6,2.6c0.5,0.5,8.8-4,17.8-9.7c6.5-4.1,10-6.1,10.4-5.8c0.3,0.3,0.5,4.3,0.5,10.2c0,10.6-0.5,13.4-2.8,17l-1.1,1.8l-2.7-0.3c-2.6-0.2-2.8-0.2-4.1,1.1c-0.7,0.8-1.6,2.3-1.9,3.4c-5.8,22.9-21.4,40.8-38.7,44.5c-4,0.8-10.7,0.8-14.8,0c-16.2-3.4-30.6-18.7-37.2-39.4c-0.9-2.9-1.9-5.9-2.2-6.6c-0.9-2.4-4.5-3.8-6.8-2.6c-1.2,0.7-3-1.6-4.2-5.7c-1-3-1.1-4.2-1.1-13.1c0-5.9,0.2-10,0.5-10.2c0.3-0.3,3.9,1.7,10.4,5.8c9.3,5.8,17.3,10.2,17.8,9.7c0.1-0.1-0.5-1.2-1.3-2.3c-2.6-3.4-4.3-6.7-5.9-11.4c-1.2-3.7-1.5-5.2-1.7-10.2c-0.2-5,0-6.5,0.8-10.3c1.3-5.6,4.2-11.6,8-16.3l2.8-3.5l-0.9-2.5c-0.8-2.2-0.9-4.1-1.1-14c-0.1-6.3-0.3-11.4-0.5-11.4C97.9,22.4,95.9,23.3,93.6,24.5z"/><path fill="#000000" d="M122.2,49.8c-10.9,2.5-19.2,10-22.5,20.3c-0.8,2.6-1,4.3-1,9c0,5.1,0.2,6.2,1.2,9.1c1.7,4.7,3.8,8,7.1,11.3c6.5,6.5,15.1,9.5,24.3,8.5c11.2-1.2,20.9-9.1,24.8-20.2c1.5-4.3,1.6-13.1,0.1-17.7c-3.8-11.9-14.7-20.2-27.1-20.8C126.6,49.2,123.9,49.4,122.2,49.8z"/><path fill="#000000" d="M79,164.6c-0.2,0.2-0.3,18.6-0.3,40.8v40.5H128h49.3l-0.1-40.7l-0.1-40.7l-1.5,0c-1.2,0.1-2.3,0.8-5.5,3.9c-9.5,9-18.1,13.9-29.4,16.8c-4.4,1.2-5.9,1.3-12.2,1.3c-10.2,0-16.3-1.4-25.6-6c-5.9-2.9-11.2-6.8-16.9-12.1C82.3,165,79.9,163.7,79,164.6z"/><path fill="#000000" d="M63.8,170.5l-4.5,1.9v36.8v36.8h4.8H69v-38.7c0-21.3-0.1-38.7-0.3-38.7C68.4,168.5,66.3,169.4,63.8,170.5z"/><path fill="#000000" d="M187,207.2v38.8h4.8h4.8v-36.8v-36.8l-4.2-1.7c-2.3-1-4.6-1.9-4.8-2C187.1,168.5,187,176.3,187,207.2z"/><path fill="#000000" d="M41.8,179.5c-3.5,1.4-7.5,3.3-8.9,4.1c-5.9,3.4-11.7,10.3-14.3,17c-1.2,2.9-8.6,38.6-8.6,41.1c0,0.6,0.6,1.8,1.6,2.7l1.6,1.6h18h18v-34.6c0-27.4-0.1-34.6-0.6-34.5C48.3,176.8,45.2,178,41.8,179.5z"/><path fill="#000000" d="M206.8,211.4v34.6h18h18l1.6-1.6c0.9-0.9,1.6-2,1.6-2.7c0-2.5-7.4-38.1-8.6-41.1c-2.6-6.8-8.9-14.2-14.8-17.3c-2.8-1.5-14.7-6.5-15.4-6.5C207,176.8,206.8,192.3,206.8,211.4z"/></g></g></g>
</svg>